<svg width="24" height="24" viewBox="0 0 24 24" version="1.1" xmlns="http://www.w3.org/2000/svg" xmlns:xlink="http://www.w3.org/1999/xlink">
<title>ic_settings_black_24px</title>
<desc>Created using Figma</desc>
<g id="Canvas" transform="translate(4 -104)">
<g id="ic_settings_black_24px">
<g id="Vector">
<use xlink:href="#path0_fill" transform="translate(-3.35089 104.333)" fill="#FFFFFF"/>
</g>
</g>
</g>
<defs>
<path id="path0_fill" d="M 20.0192 12.81C 20.0659 12.4367 20.1009 12.0633 20.1009 11.6667C 20.1009 11.27 20.0659 10.8967 20.0192 10.5233L 22.4809 8.59833C 22.7026 8.42333 22.7609 8.10833 22.6209 7.85167L 20.2876 3.815C 20.1476 3.55833 19.8326 3.465 19.5759 3.55833L 16.6709 4.725C 16.0642 4.25833 15.4109 3.87333 14.6992 3.58167L 14.2559 0.49C 14.2209 0.21 13.9759 0 13.6842 0L 9.01755 0C 8.72589 0 8.48089 0.21 8.44589 0.49L 8.00255 3.58167C 7.29089 3.87333 6.63755 4.27 6.03089 4.725L 3.12589 3.55833C 2.85755 3.45333 2.55422 3.55833 2.41422 3.815L 0.0808868 7.85167C -0.0707799 8.10833 -0.000779755 8.42333 0.220887 8.59833L 2.68255 10.5233C 2.63589 10.8967 2.60089 11.2817 2.60089 11.6667C 2.60089 12.0517 2.63589 12.4367 2.68255 12.81L 0.220887 14.735C -0.000779755 14.91 -0.0591132 15.225 0.0808868 15.4817L 2.41422 19.5183C 2.55422 19.775 2.86922 19.8683 3.12589 19.775L 6.03089 18.6083C 6.63755 19.075 7.29089 19.46 8.00255 19.7517L 8.44589 22.8433C 8.48089 23.1233 8.72589 23.3333 9.01755 23.3333L 13.6842 23.3333C 13.9759 23.3333 14.2209 23.1233 14.2559 22.8433L 14.6992 19.7517C 15.4109 19.46 16.0642 19.0633 16.6709 18.6083L 19.5759 19.775C 19.8442 19.88 20.1476 19.775 20.2876 19.5183L 22.6209 15.4817C 22.7609 15.225 22.7026 14.91 22.4809 14.735L 20.0192 12.81ZM 11.3509 15.75C 9.09922 15.75 7.26755 13.9183 7.26755 11.6667C 7.26755 9.415 9.09922 7.58333 11.3509 7.58333C 13.6026 7.58333 15.4342 9.415 15.4342 11.6667C 15.4342 13.9183 13.6026 15.75 11.3509 15.75Z"/>
</defs>
</svg>
