<svg width="26" height="18" viewBox="0 0 26 18" version="1.1" xmlns="http://www.w3.org/2000/svg" xmlns:xlink="http://www.w3.org/1999/xlink">
<title>ic_people_black_24px</title>
<desc>Created using Figma</desc>
<g id="Canvas" transform="translate(5 53)">
<g id="ic_people_black_24px">
<g id="Vector">
<use xlink:href="#path0_fill" transform="translate(-4.83333 -52.1667)" fill="#FFFFFF"/>
</g>
</g>
</g>
<defs>
<path id="path0_fill" d="M 17.5 7C 19.4367 7 20.9883 5.43667 20.9883 3.5C 20.9883 1.56333 19.4367 0 17.5 0C 15.5633 0 14 1.56333 14 3.5C 14 5.43667 15.5633 7 17.5 7ZM 8.16667 7C 10.1033 7 11.655 5.43667 11.655 3.5C 11.655 1.56333 10.1033 0 8.16667 0C 6.23 0 4.66667 1.56333 4.66667 3.5C 4.66667 5.43667 6.23 7 8.16667 7ZM 8.16667 9.33333C 5.44833 9.33333 0 10.6983 0 13.4167L 0 16.3333L 16.3333 16.3333L 16.3333 13.4167C 16.3333 10.6983 10.885 9.33333 8.16667 9.33333ZM 17.5 9.33333C 17.1617 9.33333 16.7767 9.35667 16.3683 9.39167C 17.7217 10.3717 18.6667 11.69 18.6667 13.4167L 18.6667 16.3333L 25.6667 16.3333L 25.6667 13.4167C 25.6667 10.6983 20.2183 9.33333 17.5 9.33333Z"/>
</defs>
</svg>
